<svg xmlns="http://www.w3.org/2000/svg" viewBox="0 0 32 32" width="32" height="32">
  <path d="M16.62 3.404c-.154-.58-.467-1.12-.834-1.594a.242.242 0 0 0-.053-.063C15.3 1.2 14.926.613 14.66.1a.166.166 0 0 0-.034-.054l-.018-.024c-.006-.008-.012-.016-.02-.022l-.018.028v.004l-.002.004v.002c0 .002 0 .002-.002.004v.008l-.002.004v.002l-.002.004-.002.002v.004l-.002.002-.002.004v.002l-.002.004-.002.002v.004l-.002.002-.002.004v.002l-.002.002-.002.004v.002l-.002.004-.002.002-.002.004v.002l-.002.004-.002.002v.004l-.002.002-.002.004v.002l-.002.004-.002.002v.004l-.002.002-.002.004v.002l-.002.002-.002.004v.002l-.002.004-.002.002v.004l-.002.002-.002.004v.002l-.002.004-.002.002v.004l-.002.002-.002.002v.004l-.002.002-.002.004v.002l-.002.004-.002.002v.004l-.002.002-.002.004v.002l-.002.002-.002.004v.002l-.002.004v.002l-.004.004v.002l-.002.004v.002l-.002.002-.002.004v.002l-.002.004v.002l-.002.004v.002l-.002.004-.002.002v.004l-.002.002-.002.004c-.86 1.612-1.908 3.137-2.696 4.808a16.77 16.77 0 0 0-1.281 3.386c-.338 1.354-.478 2.73-.38 4.118.276 3.862 2.048 7.082 4.878 9.69.282.26.578.506.882.744l.116.09c.018.194.032.558.06 1.08l.052.958c.002.02.014.036.032.044l.002.002a.05.05 0 0 0 .022.006h.012l.002-.002a.052.052 0 0 0 .032-.018l.694-.84c.014-.018.022-.04.018-.062l-.07-.782-.012-.142c.096-.064.1-.168.1-.168s2.522-2.146 3.148-4.636c.066-.264.112-.512.148-.744.018-.106.032-.208.044-.306l.006-.062.008-.086c.176-1.712-.004-3.5-.004-3.5-.086-1.894-.42-3.776-1.236-5.502-.528-1.118-1.178-2.164-1.876-3.18a27.258 27.258 0 0 1-.568-.84z" fill="#00ED64"/>
</svg>
